<?xml version="1.0" encoding="UTF-8" standalone="no"?>
<!-- Created with Inkscape (http://www.inkscape.org/) -->

<svg
   xmlns:dc="http://purl.org/dc/elements/1.1/"
   xmlns:cc="http://creativecommons.org/ns#"
   xmlns:rdf="http://www.w3.org/1999/02/22-rdf-syntax-ns#"
   xmlns:svg="http://www.w3.org/2000/svg"
   xmlns="http://www.w3.org/2000/svg"
   xmlns:sodipodi="http://sodipodi.sourceforge.net/DTD/sodipodi-0.dtd"
   xmlns:inkscape="http://www.inkscape.org/namespaces/inkscape"
   width="210mm"
   height="297mm"
   viewBox="0 0 210 297"
   version="1.1"
   id="svg8"
   inkscape:version="0.92.4 (5da689c313, 2019-01-14)"
   sodipodi:docname="litter picker.svg">
  <defs
     id="defs2">
    <marker
       id="Arrow2Sstart"
       inkscape:isstock="true"
       inkscape:stockid="Arrow2Sstart"
       orient="auto"
       refX="0"
       refY="0"
       style="overflow:visible">
      <path
         d="M 8.72,4.03 -2.21,0.02 8.72,-4 c -1.75,2.37 -1.74,5.62 0,8.03 z"
         id="Arrow2SstartPath"
         style="fill:#000000;fill-opacity:1;stroke:none"
         transform="matrix(0.3,0,0,0.3,-0.69,0)"
         inkscape:connector-curvature="0" />
    </marker>
    <marker
       id="Arrow2Send"
       inkscape:isstock="true"
       inkscape:stockid="Arrow2Send"
       orient="auto"
       refX="0"
       refY="0"
       style="overflow:visible">
      <path
         d="M 8.72,4.03 -2.21,0.02 8.72,-4 c -1.75,2.37 -1.74,5.62 0,8.03 z"
         id="Arrow2SendPath"
         style="fill:#000000;fill-opacity:1;stroke:none"
         transform="matrix(-0.3,0,0,-0.3,0.69,0)"
         inkscape:connector-curvature="0" />
    </marker>
  </defs>
  <sodipodi:namedview
     id="base"
     pagecolor="#ffffff"
     bordercolor="#666666"
     borderopacity="1.0"
     inkscape:pageopacity="0.0"
     inkscape:pageshadow="2"
     inkscape:zoom="0.69348732"
     inkscape:cx="185.94932"
     inkscape:cy="588.19421"
     inkscape:document-units="mm"
     inkscape:current-layer="layer1"
     showgrid="false"
     inkscape:window-width="1920"
     inkscape:window-height="1019"
     inkscape:window-x="0"
     inkscape:window-y="0"
     inkscape:window-maximized="1"
     showguides="false" />
  <metadata
     id="metadata5">
    <rdf:RDF>
      <cc:Work
         rdf:about="">
        <dc:format>image/svg+xml</dc:format>
        <dc:type
           rdf:resource="http://purl.org/dc/dcmitype/StillImage" />
        <dc:title />
      </cc:Work>
    </rdf:RDF>
  </metadata>
  <g
     inkscape:label="Layer 1"
     inkscape:groupmode="layer"
     id="layer1">
    <path
       style="color:#000000;font-style:normal;font-variant:normal;font-weight:normal;font-stretch:normal;font-size:medium;line-height:normal;font-family:sans-serif;font-variant-ligatures:normal;font-variant-position:normal;font-variant-caps:normal;font-variant-numeric:normal;font-variant-alternates:normal;font-feature-settings:normal;text-indent:0;text-align:start;text-decoration:none;text-decoration-line:none;text-decoration-style:solid;text-decoration-color:#000000;letter-spacing:normal;word-spacing:normal;text-transform:none;writing-mode:lr-tb;direction:ltr;text-orientation:mixed;dominant-baseline:auto;baseline-shift:baseline;text-anchor:start;white-space:normal;shape-padding:0;clip-rule:nonzero;display:inline;overflow:visible;visibility:visible;opacity:0.97413791;isolation:auto;mix-blend-mode:normal;color-interpolation:sRGB;color-interpolation-filters:linearRGB;solid-color:#000000;solid-opacity:1;vector-effect:none;fill:none;fill-opacity:1;fill-rule:evenodd;stroke:#000000;stroke-width:1.88976383;stroke-linecap:butt;stroke-linejoin:round;stroke-miterlimit:4;stroke-dasharray:none;stroke-dashoffset:0;stroke-opacity:1;color-rendering:auto;image-rendering:auto;shape-rendering:auto;text-rendering:auto;enable-background:accumulate"
       d="m 287.8337,83.542678 -84.03022,-8.1e-5 c 0.8098,728.428103 0.8098,429.462383 0.8098,728.428103 h 15.05664 c -1e-5,6.5e-4 -1e-5,0.001 0,0.002 v 279.6855 c -1e-4,0 -1e-4,0 0,0.01 -1.7e-4,0 -1.7e-4,0.01 0,0.01 0.003,2e-4 0.005,2e-4 0.008,0 -1.7e-4,0 -1.7e-4,0.01 0,0.01 -1.7e-4,0 -1.7e-4,0.01 0,0.01 0.002,0 0.004,0.01 0.006,0.01 0.002,0 0.005,0.01 0.008,0.01 0.002,0 0.005,0.01 0.008,0.01 0.003,2e-4 0.005,2e-4 0.008,0 -1.7e-4,0 -1.7e-4,0.01 0,0.01 0.003,2e-4 0.005,2e-4 0.008,0 0.003,2e-4 0.005,2e-4 0.008,0 0.003,2e-4 0.005,2e-4 0.008,0 h 68.03125 c 0.003,2e-4 0.005,2e-4 0.008,0 0.003,2e-4 0.005,2e-4 0.008,0 0.002,10e-5 0.004,10e-5 0.006,0 0.003,2e-4 0.005,2e-4 0.008,0 1.7e-4,0 1.7e-4,-0.01 0,-0.01 0.003,2e-4 0.005,2e-4 0.008,0 0.003,0 0.005,-0.01 0.008,-0.01 0.003,0 0.005,0 0.008,-0.01 1.7e-4,0 1.7e-4,-0.01 0,-0.01 0.003,2e-4 0.005,2e-4 0.008,0 1.7e-4,0 1.7e-4,-0.01 0,-0.01 1.7e-4,0 1.7e-4,-0.01 0,-0.01 1.7e-4,0 1.7e-4,-0.01 0,-0.01 0.003,2e-4 0.005,2e-4 0.008,0 1e-4,0 1e-4,0 0,-0.01 V 811.97266 c 1.7e-4,-0.003 1.7e-4,-0.005 0,-0.008 -0.002,-0.003 -0.005,-0.005 -0.008,-0.008 1.7e-4,-0.003 1.7e-4,-0.005 0,-0.008 1.7e-4,-0.003 1.7e-4,-0.005 0,-0.008 -0.002,-0.002 -0.005,-0.004 -0.008,-0.006 -0.002,-0.003 -0.005,-0.005 -0.008,-0.008 -0.003,-1.7e-4 -0.005,-1.7e-4 -0.008,0 1.7e-4,-0.003 1.7e-4,-0.005 0,-0.008 -0.003,-1.7e-4 -0.005,-1.7e-4 -0.008,0 -0.002,-0.003 -0.005,-0.005 -0.008,-0.008 -0.002,-9e-5 -0.004,-9e-5 -0.006,0 -0.003,-1.7e-4 -0.005,-1.7e-4 -0.008,0 -0.002,-9e-5 -0.006,0 -0.006,0 0,0 2.75656,-416.58428 0.0685,-558.68231 -31.52777,-33.94897 -33.45358,-53.43819 -33.16571,-98.58606 0.28788,-45.14786 33.16571,-71.099612 33.16571,-71.099612 z M 253.77539,1022.8867 c -7.57729,0.011 -14.67269,3.7246 -19.00195,9.9434 -0.003,-2e-4 -0.005,-2e-4 -0.008,0 -1.7e-4,0 -1.7e-4,0.01 0,0.01 -1e-4,0 -1e-4,0 0,0.01 -1.7e-4,0 -1.7e-4,0.01 0,0.01 -0.003,-2e-4 -0.005,-2e-4 -0.008,0 -1.7e-4,0 -1.7e-4,0.01 0,0.01 v 26.4648 c -1.7e-4,0 -1.7e-4,0.01 0,0.01 0.002,0 0.005,0.01 0.008,0.01 -1e-4,0 -1e-4,0 0,0.01 -1.7e-4,0 -1.7e-4,0.01 0,0.01 0.002,0 0.005,0.01 0.008,0.01 4.33619,6.2069 11.43044,9.91 19.00195,9.9141 7.54198,0 14.60829,-3.6802 18.94922,-9.8477 0.003,0 0.005,0 0.008,-0.01 1.7e-4,0 1.7e-4,-0.01 0,-0.01 10e-5,0 10e-5,0 0,-0.01 0.002,0 0.004,0 0.006,-0.01 1.7e-4,0 1.7e-4,-0.01 0,-0.01 v -26.5976 c 1.7e-4,0 1.7e-4,-0.01 0,-0.01 1.7e-4,0 1.7e-4,-0.01 0,-0.01 -0.002,0 -0.004,0 -0.006,-0.01 1.7e-4,0 1.7e-4,-0.01 0,-0.01 -0.002,0 -0.005,-0.01 -0.008,-0.01 -4.33489,-6.1779 -11.40221,-9.8581 -18.94922,-9.8692 z m 0,0.1172 c 7.50063,0.011 14.52446,3.6676 18.83789,9.8027 v 26.5684 c -4.31941,6.1248 -11.34227,9.7686 -18.83789,9.7734 -7.525,0 -14.57586,-3.6758 -18.89062,-9.8398 v -26.4277 c 4.30788,-6.1759 11.35987,-9.8658 18.89062,-9.877 z"
       id="rect10"
       inkscape:connector-curvature="0"
       sodipodi:nodetypes="cccccccccccccccccccccccccccccccccccccccccccccccccczccccccccccccccccccccccccccccccccccccc"
       transform="scale(0.26458333)" />
    <path
       inkscape:connector-curvature="0"
       style="opacity:0.97413791;fill:#66ff33;fill-opacity:1;fill-rule:evenodd;stroke:#fc9813;stroke-width:0;stroke-linejoin:round;stroke-miterlimit:4;stroke-dasharray:none;stroke-opacity:1"
       d="m 194.20311,279.43367 a 6.1206221,6.1206221 0 0 0 -5.01416,2.62362 v 7.00215 a 6.1206221,6.1206221 0 0 0 5.01416,2.61536 6.1206221,6.1206221 0 0 0 5.00125,-2.59779 v -7.03833 a 6.1206221,6.1206221 0 0 0 -5.00125,-2.60501 z"
       id="path16-5" />
    <path
       style="opacity:0.97413791;fill:none;fill-opacity:1;fill-rule:evenodd;stroke:#000000;stroke-width:0.5;stroke-linejoin:round;stroke-miterlimit:4;stroke-dasharray:none;stroke-opacity:1"
       d="m 20.503237,121.10376 c 0,0 0.13489,-5.93515 6.33982,-5.93515 6.20493,0 6.07004,5.93515 6.07004,5.93515 v 67.98443 c 0,0 0.31474,6.6096 -6.20493,6.6096 -6.51967,0 -6.20493,-6.6096 -6.20493,-6.6096 z"
       id="rect120"
       inkscape:connector-curvature="0"
       sodipodi:nodetypes="czcczcc" />
    <g
       id="g4657"
       transform="translate(24.601438,58.282807)">
      <path
         id="path117"
         style="fill:none;stroke:#000000;stroke-width:0.50741076;stroke-miterlimit:4;stroke-dasharray:none;stroke-opacity:1"
         d="m 138.94256,188.59634 c -5.69542,0 -7.00022,-6.60636 -7.00022,-6.60636 0,0 -0.47561,-37.52381 -3.4e-4,-51.49455 -0.10644,-7.17282 2.31671,-14.56764 8.83136,-18.36507 9.08575,-5.29613 19.60077,-14.633113 19.60077,-26.969443 0,-12.33633 -7.73975,-17.366255 -15.08792,-22.71843 -6.77055,-4.931456 -15.13257,-6.716023 -24.18781,-6.81075 3.99869,-7.813947 9.4139,-9.032376 21.51713,-9.032375 12.10324,10e-7 33.98324,18.608656 33.98324,37.798503 0,19.189845 -27.71883,38.004605 -29.70858,52.478905 -1.53501,11.16635 -0.94763,45.11342 -0.94763,45.11342 0,0 -1.30458,6.60615 -7,6.60615 z"
         inkscape:connector-curvature="0"
         sodipodi:nodetypes="zccssaczsscz" />
    </g>
    <circle
       style="opacity:1;fill:none;fill-opacity:1;fill-rule:evenodd;stroke:#000000;stroke-width:0.5;stroke-linejoin:round;stroke-miterlimit:4;stroke-dasharray:none;stroke-opacity:1"
       id="path898"
       cx="26.708166"
       cy="123.02422"
       r="2" />
    <circle
       style="opacity:1;fill:none;fill-opacity:1;fill-rule:evenodd;stroke:#000000;stroke-width:0.5;stroke-linejoin:round;stroke-miterlimit:4;stroke-dasharray:none;stroke-opacity:1"
       id="path898-4"
       cx="26.708166"
       cy="172.75"
       r="2" />
    <circle
       style="opacity:1;fill:none;fill-opacity:1;fill-rule:evenodd;stroke:#000000;stroke-width:0.5;stroke-linejoin:round;stroke-miterlimit:4;stroke-dasharray:none;stroke-opacity:1"
       id="path898-6"
       cx="26.708166"
       cy="187.75"
       r="2" />
    <circle
       style="opacity:1;fill:none;fill-opacity:1;fill-rule:evenodd;stroke:#000000;stroke-width:0.5;stroke-linejoin:round;stroke-miterlimit:4;stroke-dasharray:none;stroke-opacity:1"
       id="path898-2"
       cx="26.708166"
       cy="179.75"
       r="2" />
    <circle
       style="opacity:1;fill:none;fill-opacity:1;fill-rule:evenodd;stroke:#000000;stroke-width:0.5;stroke-linejoin:round;stroke-miterlimit:4;stroke-dasharray:none;stroke-opacity:1"
       id="path898-5"
       cx="163.54401"
       cy="238.62654"
       r="2" />
    <path
       style="opacity:0.97413791;fill:none;fill-opacity:1;fill-rule:evenodd;stroke:#000000;stroke-width:0.5;stroke-linejoin:round;stroke-miterlimit:4;stroke-dasharray:none;stroke-opacity:1"
       d="m 94.517891,145.763 c 0,0 0.13489,-5.935 6.339819,-5.935 6.20493,0 6.07004,5.935 6.07004,5.935 v 87.98443 c 0,0 0.31474,6.6096 -6.20493,6.6096 -6.519669,0 -6.204929,-6.6096 -6.204929,-6.6096 z"
       id="rect120-8"
       inkscape:connector-curvature="0"
       sodipodi:nodetypes="czcczcc" />
    <circle
       style="opacity:1;fill:none;fill-opacity:1;fill-rule:evenodd;stroke:#000000;stroke-width:0.5;stroke-linejoin:round;stroke-miterlimit:4;stroke-dasharray:none;stroke-opacity:1"
       id="path898-62"
       cx="100.72282"
       cy="147.683"
       r="2" />
    <circle
       style="opacity:1;fill:none;fill-opacity:1;fill-rule:evenodd;stroke:#000000;stroke-width:0.5;stroke-linejoin:round;stroke-miterlimit:4;stroke-dasharray:none;stroke-opacity:1"
       id="path898-4-8"
       cx="100.72282"
       cy="204.75"
       r="2" />
    <circle
       style="opacity:1;fill:none;fill-opacity:1;fill-rule:evenodd;stroke:#000000;stroke-width:0.5;stroke-linejoin:round;stroke-miterlimit:4;stroke-dasharray:none;stroke-opacity:1"
       id="path898-6-4"
       cx="100.72282"
       cy="232.40924"
       r="2" />
    <circle
       style="opacity:1;fill:none;fill-opacity:1;fill-rule:evenodd;stroke:#000000;stroke-width:0.5;stroke-linejoin:round;stroke-miterlimit:4;stroke-dasharray:none;stroke-opacity:1"
       id="path898-2-7"
       cx="100.72282"
       cy="194.75"
       r="2" />
    <circle
       style="opacity:1;fill:none;fill-opacity:1;fill-rule:evenodd;stroke:#000000;stroke-width:0.5;stroke-linejoin:round;stroke-miterlimit:4;stroke-dasharray:none;stroke-opacity:1"
       id="path898-4-8-2"
       cx="100.72282"
       cy="214.75"
       r="2" />
    <circle
       style="opacity:1;fill:none;fill-opacity:1;fill-rule:evenodd;stroke:#000000;stroke-width:0.5;stroke-linejoin:round;stroke-miterlimit:4;stroke-dasharray:none;stroke-opacity:1"
       id="path898-62-4"
       cx="175.12036"
       cy="174.14868"
       r="2" />
    <circle
       style="opacity:1;fill:none;fill-opacity:1;fill-rule:evenodd;stroke:#000000;stroke-width:0.5;stroke-linejoin:round;stroke-miterlimit:4;stroke-dasharray:none;stroke-opacity:1"
       id="path898-62-4-0"
       cx="69.437706"
       cy="177.75"
       r="2" />
    <circle
       style="opacity:1;fill:none;fill-opacity:1;fill-rule:evenodd;stroke:#000000;stroke-width:0.5;stroke-linejoin:round;stroke-miterlimit:4;stroke-dasharray:none;stroke-opacity:1"
       id="path898-62-4-6"
       cx="69.437706"
       cy="135.679"
       r="2" />
    <circle
       style="opacity:1;fill:none;fill-opacity:1;fill-rule:evenodd;stroke:#000000;stroke-width:0.5;stroke-linejoin:round;stroke-miterlimit:4;stroke-dasharray:none;stroke-opacity:1"
       id="path1035"
       cx="59.136505"
       cy="30.049999"
       r="1.7" />
    <circle
       style="opacity:1;fill:none;fill-opacity:1;fill-rule:evenodd;stroke:#000000;stroke-width:0.5;stroke-linejoin:round;stroke-miterlimit:4;stroke-dasharray:none;stroke-opacity:1"
       id="path1035-9"
       cx="59.136505"
       cy="40.049999"
       r="1.7" />
    <circle
       style="opacity:1;fill:none;fill-opacity:1;fill-rule:evenodd;stroke:#000000;stroke-width:0.5;stroke-linejoin:round;stroke-miterlimit:4;stroke-dasharray:none;stroke-opacity:1"
       id="path1035-9-9"
       cx="59.136505"
       cy="50.049999"
       r="1.7" />
    <circle
       style="opacity:1;fill:none;fill-opacity:1;fill-rule:evenodd;stroke:#000000;stroke-width:0.5;stroke-linejoin:round;stroke-miterlimit:4;stroke-dasharray:none;stroke-opacity:1"
       id="path1035-9-9-0"
       cx="163.244"
       cy="112.05"
       r="1.7" />
  </g>
</svg>
