<?xml version="1.0" encoding="UTF-8" standalone="no"?>
<!-- Created with Inkscape (http://www.inkscape.org/) -->

<svg
   xmlns:dc="http://purl.org/dc/elements/1.1/"
   xmlns:cc="http://creativecommons.org/ns#"
   xmlns:rdf="http://www.w3.org/1999/02/22-rdf-syntax-ns#"
   xmlns:svg="http://www.w3.org/2000/svg"
   xmlns="http://www.w3.org/2000/svg"
   xmlns:sodipodi="http://sodipodi.sourceforge.net/DTD/sodipodi-0.dtd"
   xmlns:inkscape="http://www.inkscape.org/namespaces/inkscape"
   width="210mm"
   height="297mm"
   viewBox="0 0 210 297"
   version="1.1"
   id="svg8"
   inkscape:version="0.92.4 (5da689c313, 2019-01-14)"
   sodipodi:docname="litter picker.svg">
  <defs
     id="defs2">
    <marker
       id="Arrow2Sstart"
       inkscape:isstock="true"
       inkscape:stockid="Arrow2Sstart"
       orient="auto"
       refX="0"
       refY="0"
       style="overflow:visible">
      <path
         d="M 8.72,4.03 -2.21,0.02 8.72,-4 c -1.75,2.37 -1.74,5.62 0,8.03 z"
         id="Arrow2SstartPath"
         style="fill:#000000;fill-opacity:1;stroke:none"
         transform="matrix(0.3,0,0,0.3,-0.69,0)"
         inkscape:connector-curvature="0" />
    </marker>
    <marker
       id="Arrow2Send"
       inkscape:isstock="true"
       inkscape:stockid="Arrow2Send"
       orient="auto"
       refX="0"
       refY="0"
       style="overflow:visible">
      <path
         d="M 8.72,4.03 -2.21,0.02 8.72,-4 c -1.75,2.37 -1.74,5.62 0,8.03 z"
         id="Arrow2SendPath"
         style="fill:#000000;fill-opacity:1;stroke:none"
         transform="matrix(-0.3,0,0,-0.3,0.69,0)"
         inkscape:connector-curvature="0" />
    </marker>
  </defs>
  <sodipodi:namedview
     id="base"
     pagecolor="#ffffff"
     bordercolor="#666666"
     borderopacity="1.0"
     inkscape:pageopacity="0.0"
     inkscape:pageshadow="2"
     inkscape:zoom="1.1024306"
     inkscape:cx="396.85039"
     inkscape:cy="393.25317"
     inkscape:document-units="mm"
     inkscape:current-layer="layer1"
     showgrid="false"
     inkscape:window-width="1366"
     inkscape:window-height="739"
     inkscape:window-x="0"
     inkscape:window-y="0"
     inkscape:window-maximized="1"
     showguides="false"
     inkscape:object-nodes="false" />
  <metadata
     id="metadata5">
    <rdf:RDF>
      <cc:Work
         rdf:about="">
        <dc:format>image/svg+xml</dc:format>
        <dc:type
           rdf:resource="http://purl.org/dc/dcmitype/StillImage" />
        <dc:title />
      </cc:Work>
    </rdf:RDF>
  </metadata>
  <g
     inkscape:label="Layer 1"
     inkscape:groupmode="layer"
     id="layer1">
    <path
       inkscape:connector-curvature="0"
       style="opacity:0.97413791;fill:#66ff33;fill-opacity:1;fill-rule:evenodd;stroke:#fc9813;stroke-width:0;stroke-linejoin:round;stroke-miterlimit:4;stroke-dasharray:none;stroke-opacity:1"
       d="m 194.20311,279.43367 a 6.1206221,6.1206221 0 0 0 -5.01416,2.62362 v 7.00215 a 6.1206221,6.1206221 0 0 0 5.01416,2.61536 6.1206221,6.1206221 0 0 0 5.00125,-2.59779 v -7.03833 a 6.1206221,6.1206221 0 0 0 -5.00125,-2.60501 z"
       id="path16-5" />
    <path
       style="color:#000000;font-style:normal;font-variant:normal;font-weight:normal;font-stretch:normal;font-size:medium;line-height:normal;font-family:sans-serif;font-variant-ligatures:normal;font-variant-position:normal;font-variant-caps:normal;font-variant-numeric:normal;font-variant-alternates:normal;font-feature-settings:normal;text-indent:0;text-align:start;text-decoration:none;text-decoration-line:none;text-decoration-style:solid;text-decoration-color:#000000;letter-spacing:normal;word-spacing:normal;text-transform:none;writing-mode:lr-tb;direction:ltr;text-orientation:mixed;dominant-baseline:auto;baseline-shift:baseline;text-anchor:start;white-space:normal;shape-padding:0;clip-rule:nonzero;display:inline;overflow:visible;visibility:visible;opacity:0.97413791;isolation:auto;mix-blend-mode:normal;color-interpolation:sRGB;color-interpolation-filters:linearRGB;solid-color:#000000;solid-opacity:1;vector-effect:none;fill:none;fill-opacity:1;fill-rule:evenodd;stroke:#000000;stroke-width:0.5;stroke-linecap:butt;stroke-linejoin:round;stroke-miterlimit:4;stroke-dasharray:none;stroke-dashoffset:0;stroke-opacity:1;color-rendering:auto;image-rendering:auto;shape-rendering:auto;text-rendering:auto;enable-background:accumulate"
       d="m 14.6,16.381091 c 0.03283,29.534076 -0.02354,67.304028 0,85.618909 0.0027,2.13321 3.411372,2.23896 3.414986,5 0.0036,2.76104 -3.419255,1.85818 -3.414986,5 0.108712,80.00196 0,34.02074 0,97.11102 h 4.223838 c -3e-6,1.8e-4 -3e-6,2.7e-4 0,5.3e-4 v 74.00012 c -2.7e-5,0 -2.7e-5,0 0,0.003 -4.5e-5,0 -4.5e-5,0.003 0,0.003 7.94e-4,5e-5 0.0013,5e-5 0.0021,0 -4.5e-5,0 -4.5e-5,0.003 0,0.003 -4.5e-5,0 -4.5e-5,0.003 0,0.003 5.29e-4,0 0.0011,0.003 0.0016,0.003 5.29e-4,0 0.0013,0.003 0.0021,0.003 5.29e-4,0 0.0013,0.003 0.0021,0.003 7.94e-4,5e-5 0.0013,5e-5 0.0021,0 -4.5e-5,0 -4.5e-5,0.003 0,0.003 7.94e-4,5e-5 0.0013,5e-5 0.0021,0 7.94e-4,5e-5 0.0013,5e-5 0.0021,0 7.94e-4,5e-5 0.0013,5e-5 0.0021,0 h 17.999935 c 7.94e-4,5e-5 0.0013,5e-5 0.0021,0 7.94e-4,5e-5 0.0013,5e-5 0.0021,0 5.29e-4,3e-5 0.0011,3e-5 0.0016,0 7.93e-4,5e-5 0.0013,5e-5 0.0021,0 4.5e-5,0 4.5e-5,-0.003 0,-0.003 7.94e-4,5e-5 0.0013,5e-5 0.0021,0 7.94e-4,0 0.0013,-0.003 0.0021,-0.003 7.93e-4,0 0.0013,0 0.0021,-0.003 4.5e-5,0 4.5e-5,-0.003 0,-0.003 7.94e-4,5e-5 0.0013,5e-5 0.0021,0 4.5e-5,0 4.5e-5,-0.003 0,-0.003 4.5e-5,0 4.5e-5,-0.003 0,-0.003 4.5e-5,0 4.5e-5,-0.003 0,-0.003 7.94e-4,5e-5 0.0013,5e-5 0.0021,0 2.6e-5,0 2.6e-5,0 0,-0.003 v -74.00013 c 4.5e-5,-7.9e-4 4.5e-5,-0.001 0,-0.002 -5.3e-4,-8e-4 -0.0013,-0.001 -0.0021,-0.002 4.5e-5,-7.9e-4 4.5e-5,-0.001 0,-0.002 4.5e-5,-7.9e-4 4.5e-5,-0.001 0,-0.002 -5.29e-4,-5.3e-4 -0.0013,-0.001 -0.0021,-0.002 -5.29e-4,-8e-4 -0.0013,-0.001 -0.0021,-0.002 -7.94e-4,-4e-5 -0.0013,-4e-5 -0.0021,0 4.5e-5,-7.9e-4 4.5e-5,-10e-4 0,-0.002 -7.94e-4,-5e-5 -0.0013,-5e-5 -0.0021,0 -5.29e-4,-8e-4 -0.0013,-0.001 -0.0021,-0.002 -5.3e-4,-3e-5 -0.0011,-3e-5 -0.0016,0 -7.94e-4,-5e-5 -0.0013,-5e-5 -0.0021,0 -5.29e-4,-3e-5 -0.0016,0 -0.0016,0 0,0 0.728647,-121.667033 0.01743,-159.263803 0,0 -7.900162,-3.921922 -6.485109,-15.783431 0.712529,-5.972685 5.948223,-8.980934 7.468316,-11.214719 2.184249,-3.209771 -0.98321,-6.452475 -0.98321,-6.452475 -8.428398,-1e-6 -13.829602,-1.3e-5 -22.258,-2.1e-5 z M 27.95,264.46997 c 1.984543,2e-5 4.508739,1.35192 5.65,2.97516 V 274.6 c -1.142843,1.62052 -3.666784,3.22299 -5.65,3.22362 -1.99099,6.4e-4 -4.608387,-1.59273 -5.75,-3.22362 v -7.155 c 1.139793,-1.63404 3.757486,-2.97505 5.75,-2.97503 z"
       id="rect10"
       inkscape:connector-curvature="0"
       sodipodi:nodetypes="cczcccccccccccccccccccccccccccccccccccccccccccccccccssccsccsccs" />
    <circle
       style="opacity:1;fill:none;fill-opacity:1;fill-rule:evenodd;stroke:#000000;stroke-width:0.51111114;stroke-linejoin:round;stroke-miterlimit:4;stroke-dasharray:none;stroke-opacity:1"
       id="path898-62-4-0"
       cx="29.427492"
       cy="188.76425"
       r="2.0444443" />
    <circle
       style="opacity:1;fill:none;fill-opacity:1;fill-rule:evenodd;stroke:#000000;stroke-width:0.51111114;stroke-linejoin:round;stroke-miterlimit:4;stroke-dasharray:none;stroke-opacity:1"
       id="path898-62-4-6"
       cx="29.427492"
       cy="145.7"
       r="2.0444443" />
    <circle
       style="opacity:1;fill:none;fill-opacity:1;fill-rule:evenodd;stroke:#000000;stroke-width:0.5;stroke-linejoin:round;stroke-miterlimit:4;stroke-dasharray:none;stroke-opacity:1"
       id="path1035"
       cx="19.839344"
       cy="24.327112"
       r="1.7" />
    <circle
       style="opacity:1;fill:none;fill-opacity:1;fill-rule:evenodd;stroke:#000000;stroke-width:0.5;stroke-linejoin:round;stroke-miterlimit:4;stroke-dasharray:none;stroke-opacity:1"
       id="path1035-9-9"
       cx="19.839344"
       cy="44.32711"
       r="1.7" />
    <path
       sodipodi:nodetypes="zccssacsssszscz"
       inkscape:connector-curvature="0"
       d="m 54.66029,170.99401 c -5.69542,0 -7.00022,-6.60636 -7.00022,-6.60636 0,0 -0.47561,-35.14793 -3.4e-4,-49.11867 0.572383,-8.02135 8.634148,-19.601298 12.447983,-24.749777 5.242411,-7.076982 10.620097,-12.752742 10.620097,-25.089072 0,-12.33633 -3.928489,-15.688469 -9.72387,-20.589973 -6.395466,-5.409032 -14.94181,-5.571445 -24.18781,-6.81075 6.09708,-6.669369 9.40737,-9.795427 20.56332,-9.795427 14.58314,1e-6 27.282165,18.296173 27.653,37.482437 0.189107,9.784028 -5.843358,20.918794 -11.89702,31.063142 -3.392101,5.68427 -11.484901,17.04025 -11.47543,20.41506 0.02396,8.53909 4.786632,8.17809 4.759117,10.91497 -0.02751,2.73688 -4.694091,5.17535 -4.759117,9.64783 -0.163859,11.27017 2.9e-4,26.63044 2.9e-4,26.63044 0,0 -1.30458,6.60615 -7,6.60615 z"
       style="fill:none;stroke:#000000;stroke-width:0.50741076;stroke-miterlimit:4;stroke-dasharray:none;stroke-opacity:1"
       id="path117" />
    <circle
       style="opacity:1;fill:none;fill-opacity:1;fill-rule:evenodd;stroke:#000000;stroke-width:0.51111114;stroke-linejoin:round;stroke-miterlimit:4;stroke-dasharray:none;stroke-opacity:1"
       id="path898-5"
       cx="54.710297"
       cy="162.69139"
       r="2.0444443" />
    <circle
       style="opacity:1;fill:none;fill-opacity:1;fill-rule:evenodd;stroke:#000000;stroke-width:0.51111114;stroke-linejoin:round;stroke-miterlimit:4;stroke-dasharray:none;stroke-opacity:1"
       id="path898-62-4"
       cx="65.630394"
       cy="95.053703"
       r="2.0444443" />
    <circle
       style="opacity:1;fill:none;fill-opacity:1;fill-rule:evenodd;stroke:#000000;stroke-width:0.5;stroke-linejoin:round;stroke-miterlimit:4;stroke-dasharray:none;stroke-opacity:1"
       id="path1035-9-9-0"
       cx="55.978962"
       cy="35.35553"
       r="1.7" />
    <path
       style="opacity:0.97413791;fill:none;fill-opacity:1;fill-rule:evenodd;stroke:#000000;stroke-width:0.50152892;stroke-linejoin:round;stroke-miterlimit:4;stroke-dasharray:none;stroke-opacity:1"
       d="m 60.26292,190.67123 c 0,0 0.135718,-5.93506 6.378749,-5.93506 6.24303,0 6.107312,5.93506 6.107312,5.93506 V 277.5 c 0,0 0.0752,7.5 -6.484504,7.5 -6.559704,0 -6.001557,-7.5 -6.001557,-7.5 z"
       id="rect120-9"
       inkscape:connector-curvature="0"
       sodipodi:nodetypes="czcczcc" />
    <circle
       style="opacity:1;fill:none;fill-opacity:1;fill-rule:evenodd;stroke:#000000;stroke-width:0.51111114;stroke-linejoin:round;stroke-miterlimit:4;stroke-dasharray:none;stroke-opacity:1"
       id="path898-1"
       cx="66.5"
       cy="192.54102"
       r="2.0444443" />
    <circle
       style="opacity:1;fill:none;fill-opacity:1;fill-rule:evenodd;stroke:#000000;stroke-width:0.51111114;stroke-linejoin:round;stroke-miterlimit:4;stroke-dasharray:none;stroke-opacity:1"
       id="path898-4-2"
       cx="66.5"
       cy="240.3468"
       r="2.0444443" />
    <circle
       style="opacity:1;fill:none;fill-opacity:1;fill-rule:evenodd;stroke:#000000;stroke-width:0.51111114;stroke-linejoin:round;stroke-miterlimit:4;stroke-dasharray:none;stroke-opacity:1"
       id="path898-6-7"
       cx="66.5"
       cy="259.66678"
       r="2.0444443" />
    <circle
       style="opacity:1;fill:none;fill-opacity:1;fill-rule:evenodd;stroke:#000000;stroke-width:0.51111114;stroke-linejoin:round;stroke-miterlimit:4;stroke-dasharray:none;stroke-opacity:1"
       id="path898-2-0"
       cx="66.5"
       cy="249.2668"
       r="2.0444443" />
    <path
       style="opacity:0.97413791;fill:none;fill-opacity:1;fill-rule:evenodd;stroke:#000000;stroke-width:0.50167072;stroke-linejoin:round;stroke-miterlimit:4;stroke-dasharray:none;stroke-opacity:1"
       d="m 80.253402,197.15668 c 0,0 0.135796,-5.93502 6.382391,-5.93502 6.246595,0 6.1108,5.93502 6.1108,5.93502 v 67.98302 c 0,0 0.316853,6.60946 -6.246596,6.60946 -6.563448,0 -6.246595,-6.60946 -6.246595,-6.60946 z"
       id="rect120-9-6"
       inkscape:connector-curvature="0"
       sodipodi:nodetypes="czcczcc" />
    <circle
       style="opacity:1;fill:none;fill-opacity:1;fill-rule:evenodd;stroke:#000000;stroke-width:0.51111114;stroke-linejoin:round;stroke-miterlimit:4;stroke-dasharray:none;stroke-opacity:1"
       id="path898-1-7"
       cx="86.5"
       cy="199.02643"
       r="2.0444443" />
    <circle
       style="opacity:1;fill:none;fill-opacity:1;fill-rule:evenodd;stroke:#000000;stroke-width:0.51111114;stroke-linejoin:round;stroke-miterlimit:4;stroke-dasharray:none;stroke-opacity:1"
       id="path898-4-2-5"
       cx="86.5"
       cy="248.75221"
       r="2.0444443" />
    <circle
       style="opacity:1;fill:none;fill-opacity:1;fill-rule:evenodd;stroke:#000000;stroke-width:0.51111114;stroke-linejoin:round;stroke-miterlimit:4;stroke-dasharray:none;stroke-opacity:1"
       id="path898-6-7-3"
       cx="86.5"
       cy="263.75223"
       r="2.0444443" />
    <circle
       style="opacity:1;fill:none;fill-opacity:1;fill-rule:evenodd;stroke:#000000;stroke-width:0.51111114;stroke-linejoin:round;stroke-miterlimit:4;stroke-dasharray:none;stroke-opacity:1"
       id="path898-2-0-5"
       cx="86.5"
       cy="255.75221"
       r="2.0444443" />
    <circle
       style="opacity:1;fill:none;fill-opacity:1;fill-rule:evenodd;stroke:#000000;stroke-width:0.51111114;stroke-linejoin:round;stroke-miterlimit:4;stroke-dasharray:none;stroke-opacity:1"
       id="path898-6-7-6"
       cx="66.5"
       cy="277.31998"
       r="2.0444443" />
  </g>
</svg>
