<?xml version="1.0" encoding="UTF-8" standalone="no"?>
<!-- Created with Inkscape (http://www.inkscape.org/) -->

<svg
   xmlns:dc="http://purl.org/dc/elements/1.1/"
   xmlns:cc="http://creativecommons.org/ns#"
   xmlns:rdf="http://www.w3.org/1999/02/22-rdf-syntax-ns#"
   xmlns:svg="http://www.w3.org/2000/svg"
   xmlns="http://www.w3.org/2000/svg"
   xmlns:sodipodi="http://sodipodi.sourceforge.net/DTD/sodipodi-0.dtd"
   xmlns:inkscape="http://www.inkscape.org/namespaces/inkscape"
   width="210mm"
   height="297mm"
   viewBox="0 0 210 297"
   version="1.1"
   id="svg8"
   inkscape:version="0.92.4 (5da689c313, 2019-01-14)"
   sodipodi:docname="litter picker.svg">
  <defs
     id="defs2">
    <marker
       id="Arrow2Sstart"
       inkscape:isstock="true"
       inkscape:stockid="Arrow2Sstart"
       orient="auto"
       refX="0"
       refY="0"
       style="overflow:visible">
      <path
         d="M 8.72,4.03 -2.21,0.02 8.72,-4 c -1.75,2.37 -1.74,5.62 0,8.03 z"
         id="Arrow2SstartPath"
         style="fill:#000000;fill-opacity:1;stroke:none"
         transform="matrix(0.3,0,0,0.3,-0.69,0)"
         inkscape:connector-curvature="0" />
    </marker>
    <marker
       id="Arrow2Send"
       inkscape:isstock="true"
       inkscape:stockid="Arrow2Send"
       orient="auto"
       refX="0"
       refY="0"
       style="overflow:visible">
      <path
         d="M 8.72,4.03 -2.21,0.02 8.72,-4 c -1.75,2.37 -1.74,5.62 0,8.03 z"
         id="Arrow2SendPath"
         style="fill:#000000;fill-opacity:1;stroke:none"
         transform="matrix(-0.3,0,0,-0.3,0.69,0)"
         inkscape:connector-curvature="0" />
    </marker>
  </defs>
  <sodipodi:namedview
     id="base"
     pagecolor="#ffffff"
     bordercolor="#666666"
     borderopacity="1.0"
     inkscape:pageopacity="0.0"
     inkscape:pageshadow="2"
     inkscape:zoom="0.98073918"
     inkscape:cx="371.01381"
     inkscape:cy="652.94027"
     inkscape:document-units="mm"
     inkscape:current-layer="layer1"
     showgrid="false"
     inkscape:window-width="1366"
     inkscape:window-height="739"
     inkscape:window-x="0"
     inkscape:window-y="0"
     inkscape:window-maximized="1"
     showguides="false" />
  <metadata
     id="metadata5">
    <rdf:RDF>
      <cc:Work
         rdf:about="">
        <dc:format>image/svg+xml</dc:format>
        <dc:type
           rdf:resource="http://purl.org/dc/dcmitype/StillImage" />
        <dc:title />
      </cc:Work>
    </rdf:RDF>
  </metadata>
  <g
     inkscape:label="Layer 1"
     inkscape:groupmode="layer"
     id="layer1">
    <path
       style="color:#000000;font-style:normal;font-variant:normal;font-weight:normal;font-stretch:normal;font-size:medium;line-height:normal;font-family:sans-serif;font-variant-ligatures:normal;font-variant-position:normal;font-variant-caps:normal;font-variant-numeric:normal;font-variant-alternates:normal;font-feature-settings:normal;text-indent:0;text-align:start;text-decoration:none;text-decoration-line:none;text-decoration-style:solid;text-decoration-color:#000000;letter-spacing:normal;word-spacing:normal;text-transform:none;writing-mode:lr-tb;direction:ltr;text-orientation:mixed;dominant-baseline:auto;baseline-shift:baseline;text-anchor:start;white-space:normal;shape-padding:0;clip-rule:nonzero;display:inline;overflow:visible;visibility:visible;opacity:0.97413791;isolation:auto;mix-blend-mode:normal;color-interpolation:sRGB;color-interpolation-filters:linearRGB;solid-color:#000000;solid-opacity:1;vector-effect:none;fill:none;fill-opacity:1;fill-rule:evenodd;stroke:#000000;stroke-width:1.88976383;stroke-linecap:butt;stroke-linejoin:round;stroke-miterlimit:4;stroke-dasharray:none;stroke-dashoffset:0;stroke-opacity:1;color-rendering:auto;image-rendering:auto;shape-rendering:auto;text-rendering:auto;enable-background:accumulate"
       d="m 295.32227,79.361328 c 0,0 -66.90317,0.440581 -103.05469,9.949219 -36.15153,9.508637 -67.35326,25.388643 -84.66016,39.162113 -17.306897,13.77343 -24.507811,43.16601 -24.507811,43.16601 0,0 32.693711,-9.76291 49.453121,-12.74609 26.96312,-4.7994 44.71998,-7.80676 72.06055,-9.91797 V 811.9707 h 15.05664 c -1e-5,6.5e-4 -1e-5,0.001 0,0.002 v 279.68554 c -1e-4,0 -1e-4,0 0,0.01 -1.7e-4,0 -1.7e-4,0.01 0,0.01 0.003,2e-4 0.005,2e-4 0.008,0 -1.7e-4,0 -1.7e-4,0.01 0,0.01 -1.7e-4,0 -1.7e-4,0.01 0,0.01 0.002,0 0.004,0.01 0.006,0.01 0.002,0 0.005,0.01 0.008,0.01 0.002,0 0.005,0.01 0.008,0.01 0.003,2e-4 0.005,2e-4 0.008,0 -1.7e-4,0 -1.7e-4,0.01 0,0.01 0.003,2e-4 0.005,2e-4 0.008,0 0.003,2e-4 0.005,2e-4 0.008,0 0.003,2e-4 0.005,2e-4 0.008,0 h 68.03125 c 0.003,2e-4 0.005,2e-4 0.008,0 0.003,2e-4 0.005,2e-4 0.008,0 0.002,10e-5 0.004,10e-5 0.006,0 0.003,2e-4 0.005,2e-4 0.008,0 1.7e-4,-0 1.7e-4,-0.01 0,-0.01 0.003,2e-4 0.005,2e-4 0.008,0 0.003,-0 0.005,-0.01 0.008,-0.01 0.003,-0 0.005,-0 0.008,-0.01 1.7e-4,-0 1.7e-4,-0.01 0,-0.01 0.003,2e-4 0.005,2e-4 0.008,0 1.7e-4,-0 1.7e-4,-0.01 0,-0.01 1.7e-4,-0 1.7e-4,-0.01 0,-0.01 1.7e-4,-0 1.7e-4,-0.01 0,-0.01 0.003,2e-4 0.005,2e-4 0.008,0 10e-5,-0 10e-5,-0 0,-0.01 V 811.97266 c 1.7e-4,-0.003 1.7e-4,-0.005 0,-0.008 -0.002,-0.003 -0.005,-0.005 -0.008,-0.008 1.7e-4,-0.003 1.7e-4,-0.005 0,-0.008 1.7e-4,-0.003 1.7e-4,-0.005 0,-0.008 -0.002,-0.002 -0.005,-0.004 -0.008,-0.006 -0.002,-0.003 -0.005,-0.005 -0.008,-0.008 -0.003,-1.7e-4 -0.005,-1.7e-4 -0.008,0 1.7e-4,-0.003 1.7e-4,-0.005 0,-0.008 -0.003,-1.7e-4 -0.005,-1.7e-4 -0.008,0 -0.002,-0.003 -0.005,-0.005 -0.008,-0.008 -0.002,-9e-5 -0.004,-9e-5 -0.006,0 -0.003,-1.7e-4 -0.005,-1.7e-4 -0.008,0 -0.002,-9e-5 -0.004,-9e-5 -0.006,0 l 0.72071,-660.15234 z M 253.77539,1022.8867 c -7.57729,0.011 -14.67269,3.7246 -19.00195,9.9434 -0.003,-2e-4 -0.005,-2e-4 -0.008,0 -1.7e-4,0 -1.7e-4,0.01 0,0.01 -1e-4,0 -1e-4,0 0,0.01 -1.7e-4,0 -1.7e-4,0.01 0,0.01 -0.003,-2e-4 -0.005,-2e-4 -0.008,0 -1.7e-4,0 -1.7e-4,0.01 0,0.01 v 26.4648 c -1.7e-4,0 -1.7e-4,0.01 0,0.01 0.002,0 0.005,0.01 0.008,0.01 -1e-4,0 -1e-4,0 0,0.01 -1.7e-4,0 -1.7e-4,0.01 0,0.01 0.002,0 0.005,0.01 0.008,0.01 4.33619,6.2069 11.43044,9.91 19.00195,9.9141 7.54198,-0 14.60829,-3.6802 18.94922,-9.8477 0.003,-0 0.005,-0 0.008,-0.01 1.7e-4,-0 1.7e-4,-0.01 0,-0.01 1e-4,-0 1e-4,-0 0,-0.01 0.002,-0 0.004,-0 0.006,-0.01 1.7e-4,-0 1.7e-4,-0.01 0,-0.01 v -26.5976 c 1.7e-4,-0 1.7e-4,-0.01 0,-0.01 1.7e-4,-0 1.7e-4,-0.01 0,-0.01 -0.002,-0 -0.004,-0 -0.006,-0.01 1.7e-4,-0 1.7e-4,-0.01 0,-0.01 -0.002,-0 -0.005,-0.01 -0.008,-0.01 -4.33489,-6.1779 -11.40221,-9.8581 -18.94922,-9.8692 z m 0,0.1172 c 7.50063,0.011 14.52446,3.6676 18.83789,9.8027 v 26.5684 c -4.31941,6.1248 -11.34227,9.7686 -18.83789,9.7734 -7.525,-0 -14.57586,-3.6758 -18.89062,-9.8398 v -26.4277 c 4.30788,-6.1759 11.35987,-9.8658 18.89062,-9.877 z"
       transform="scale(0.26458333)"
       id="rect10"
       inkscape:connector-curvature="0"
       sodipodi:nodetypes="cscccccccccccccccccccccccccccccccccccccccccccccccccccccccccccccccccccccccccccccccccccccccc" />
    <path
       inkscape:connector-curvature="0"
       style="opacity:0.97413791;fill:#66ff33;fill-opacity:1;fill-rule:evenodd;stroke:#fc9813;stroke-width:0;stroke-linejoin:round;stroke-miterlimit:4;stroke-dasharray:none;stroke-opacity:1"
       d="m 194.20311,279.43367 a 6.1206221,6.1206221 0 0 0 -5.01416,2.62362 v 7.00215 a 6.1206221,6.1206221 0 0 0 5.01416,2.61536 6.1206221,6.1206221 0 0 0 5.00125,-2.59779 v -7.03833 a 6.1206221,6.1206221 0 0 0 -5.00125,-2.60501 z"
       id="path16-5" />
    <path
       style="opacity:0.97413791;fill:none;fill-opacity:1;fill-rule:evenodd;stroke:#000000;stroke-width:0.5;stroke-linejoin:round;stroke-miterlimit:4;stroke-dasharray:none;stroke-opacity:1"
       d="m 20.503237,121.10376 c 0,0 0.13489,-5.93515 6.33982,-5.93515 6.20493,0 6.07004,5.93515 6.07004,5.93515 v 67.98443 c 0,0 0.31474,6.6096 -6.20493,6.6096 -6.51967,0 -6.20493,-6.6096 -6.20493,-6.6096 z"
       id="rect120"
       inkscape:connector-curvature="0"
       sodipodi:nodetypes="czcczcc" />
    <path
       style="opacity:0.97413791;fill:none;fill-opacity:1;fill-rule:evenodd;stroke:#000000;stroke-width:0.5;stroke-linejoin:round;stroke-miterlimit:4;stroke-dasharray:none;stroke-opacity:1"
       d="m 19.693903,214.64981 c 0,0 0.13489,-5.93515 6.33982,-5.93515 6.20493,0 6.07004,5.93515 6.07004,5.93515 v 67.98443 c 0,0 0.31474,6.6096 -6.20493,6.6096 -6.51967,0 -6.20493,-6.6096 -6.20493,-6.6096 z"
       id="rect120-3"
       inkscape:connector-curvature="0"
       sodipodi:nodetypes="czcczcc" />
    <path
       style="opacity:0.97413791;fill:none;fill-opacity:1;fill-rule:evenodd;stroke:#000000;stroke-width:0.38945568;stroke-linejoin:round;stroke-miterlimit:4;stroke-dasharray:none;stroke-opacity:1"
       d="m 19.154342,61.076916 c 0,0 0.13489,-3.60087 6.33982,-3.60087 6.20493,0 6.07004,3.60087 6.07004,3.60087 v 41.246354 c 0,0 0.31474,4.01006 -6.20493,4.01006 -6.51967,0 -6.20493,-4.01006 -6.20493,-4.01006 z"
       id="rect120-6"
       inkscape:connector-curvature="0"
       sodipodi:nodetypes="czcczcc" />
    <g
       id="g4657">
      <path
         id="path117"
         style="fill:none;stroke:#000000;stroke-width:0.50741076;stroke-miterlimit:4;stroke-dasharray:none;stroke-opacity:1"
         d="m 147.24807,144.23366 c 4.0822,-14.02854 29.3507,-40.64595 29.3507,-59.835795 0,-19.189847 -15.55644,-34.746294 -34.74629,-34.746296 -9.59493,-1e-6 -18.2815,3.88911 -24.56934,10.176953 l 8.77476,8.774765 c 4.04219,-4.042185 9.62641,-6.542327 15.79458,-6.542326 12.33633,3e-6 22.3369,10.000574 22.3369,22.336904 0,12.33633 -10.00057,22.336905 -22.3369,22.336905 m -9.37058,7.03433 c 0,0 0.15711,-5.93224 7.3844,-5.93224 7.22729,0 7.07018,39.90779 7.07018,39.90779 0,0 0.3666,40.58191 -7.22729,40.58191 -7.59389,0 -7.22729,-6.60636 -7.22729,-6.60636 z"
         inkscape:connector-curvature="0"
         sodipodi:nodetypes="cssccssccscscc" />
    </g>
  </g>
</svg>
